<svg width="97" height="97" viewBox="0 0 97 97" fill="none" xmlns="http://www.w3.org/2000/svg">
<g filter="url(#filter0_d_10590_2)">
<circle cx="48.5" cy="48.5" r="33.5" fill="url(#paint0_linear_10590_2)"/>
</g>
<path d="M31.8 46.125H33.6V57.375H31.8C31.5635 57.3753 31.3294 57.327 31.1108 57.2329C30.8923 57.1387 30.6938 57.0006 30.5266 56.8265C30.3594 56.6523 30.2268 56.4455 30.1364 56.2179C30.0461 55.9903 29.9997 55.7463 30 55.5V48C29.9997 47.7537 30.0461 47.5097 30.1364 47.2821C30.2268 47.0545 30.3594 46.8477 30.5266 46.6735C30.6938 46.4994 30.8923 46.3613 31.1108 46.2671C31.3294 46.173 31.5635 46.1247 31.8 46.125V46.125ZM60.6 43.3125V59.25C60.5991 60.2443 60.2195 61.1975 59.5445 61.9006C58.8696 62.6036 57.9545 62.999 57 63H39C38.0455 62.999 37.1304 62.6036 36.4555 61.9006C35.7805 61.1975 35.4009 60.2443 35.4 59.25V43.3125C35.3998 42.6969 35.5161 42.0872 35.7422 41.5184C35.9682 40.9496 36.2997 40.4328 36.7176 39.9975C37.1355 39.5622 37.6316 39.2169 38.1777 38.9814C38.7237 38.7459 39.309 38.6248 39.9 38.625H46.2V34.875C46.2 34.3777 46.3896 33.9008 46.7272 33.5492C47.0648 33.1975 47.5226 33 48 33C48.4774 33 48.9352 33.1975 49.2728 33.5492C49.6104 33.9008 49.8 34.3777 49.8 34.875V38.625H56.1C56.691 38.6248 57.2762 38.7459 57.8223 38.9814C58.3684 39.2169 58.8645 39.5622 59.2824 39.9975C59.7003 40.4328 60.0318 40.9496 60.2578 41.5184C60.4839 42.0872 60.6002 42.6969 60.6 43.3125V43.3125ZM44.85 48C44.85 47.5365 44.718 47.0833 44.4708 46.6979C44.2236 46.3125 43.8722 46.0121 43.461 45.8347C43.0499 45.6573 42.5975 45.6109 42.161 45.7013C41.7246 45.7917 41.3237 46.0149 41.009 46.3427C40.6943 46.6705 40.48 47.0881 40.3932 47.5428C40.3064 47.9974 40.351 48.4687 40.5213 48.8969C40.6916 49.3252 40.98 49.6912 41.35 49.9488C41.72 50.2063 42.155 50.3438 42.6 50.3438C42.8955 50.3438 43.1881 50.2832 43.4611 50.1654C43.7341 50.0476 43.9821 49.875 44.191 49.6573C44.4 49.4397 44.5657 49.1813 44.6788 48.8969C44.7918 48.6126 44.85 48.3078 44.85 48V48ZM44.4 55.5H40.8V57.375H44.4V55.5ZM49.8 55.5H46.2V57.375H49.8V55.5ZM55.65 48C55.65 47.5365 55.518 47.0833 55.2708 46.6979C55.0236 46.3125 54.6722 46.0121 54.261 45.8347C53.8499 45.6573 53.3975 45.6109 52.961 45.7013C52.5246 45.7917 52.1237 46.0149 51.809 46.3427C51.4943 46.6705 51.28 47.0881 51.1932 47.5428C51.1064 47.9974 51.151 48.4687 51.3213 48.8969C51.4916 49.3252 51.78 49.6912 52.15 49.9488C52.52 50.2063 52.955 50.3438 53.4 50.3438C53.6955 50.3438 53.9881 50.2832 54.2611 50.1654C54.5341 50.0476 54.7821 49.875 54.991 49.6573C55.2 49.4397 55.3657 49.1813 55.4788 48.8969C55.5918 48.6126 55.65 48.3078 55.65 48V48ZM55.2 55.5H51.6V57.375H55.2V55.5ZM66 48V55.5C66.0003 55.7463 65.9539 55.9903 65.8636 56.2179C65.7732 56.4455 65.6406 56.6523 65.4734 56.8265C65.3062 57.0006 65.1077 57.1387 64.8892 57.2329C64.6706 57.327 64.4365 57.3753 64.2 57.375H62.4V46.125H64.2C64.4365 46.1247 64.6706 46.173 64.8892 46.2671C65.1077 46.3613 65.3062 46.4994 65.4734 46.6735C65.6406 46.8477 65.7732 47.0545 65.8636 47.2821C65.9539 47.5097 66.0003 47.7537 66 48Z" fill="white"/>
<defs>
<filter id="filter0_d_10590_2" x="0" y="0" width="97" height="97" filterUnits="userSpaceOnUse" color-interpolation-filters="sRGB">
<feFlood flood-opacity="0" result="BackgroundImageFix"/>
<feColorMatrix in="SourceAlpha" type="matrix" values="0 0 0 0 0 0 0 0 0 0 0 0 0 0 0 0 0 0 127 0" result="hardAlpha"/>
<feOffset/>
<feGaussianBlur stdDeviation="7.5"/>
<feColorMatrix type="matrix" values="0 0 0 0 0 0 0 0 0 0 0 0 0 0 0 0 0 0 0.15 0"/>
<feBlend mode="normal" in2="BackgroundImageFix" result="effect1_dropShadow_10590_2"/>
<feBlend mode="normal" in="SourceGraphic" in2="effect1_dropShadow_10590_2" result="shape"/>
</filter>
<linearGradient id="paint0_linear_10590_2" x1="48.5" y1="15" x2="48.5" y2="82" gradientUnits="userSpaceOnUse">
<stop stop-color="#FF7600"/>
<stop offset="1" stop-color="#FF5C00"/>
</linearGradient>
</defs>
</svg>
